<mxfile host="app.diagrams.net" modified="2024-02-28T10:57:08.367Z" agent="Mozilla/5.0 (Macintosh; Intel Mac OS X 10_15_7) AppleWebKit/537.36 (KHTML, like Gecko) Chrome/122.0.0.0 Safari/537.36" etag="kVEmyGkicS02MW_Ien66" version="23.1.1" type="device">
  <diagram name="Page-1" id="ILaxCSDIJuf5NFgGn5ra">
    <mxGraphModel dx="1193" dy="618" grid="1" gridSize="10" guides="1" tooltips="1" connect="1" arrows="1" fold="1" page="1" pageScale="1" pageWidth="1169" pageHeight="827" math="0" shadow="0">
      <root>
        <mxCell id="0" />
        <mxCell id="1" parent="0" />
        <mxCell id="URppU9G0BXTxkSnTJ7dF-1" value="" style="endArrow=none;html=1;rounded=0;fillColor=#dae8fc;strokeColor=#6c8ebf;" edge="1" parent="1">
          <mxGeometry width="50" height="50" relative="1" as="geometry">
            <mxPoint x="80" y="360" as="sourcePoint" />
            <mxPoint x="80" y="80" as="targetPoint" />
          </mxGeometry>
        </mxCell>
        <mxCell id="URppU9G0BXTxkSnTJ7dF-2" value="" style="endArrow=none;html=1;rounded=0;fillColor=#f8cecc;strokeColor=#B85450;" edge="1" parent="1">
          <mxGeometry width="50" height="50" relative="1" as="geometry">
            <mxPoint x="140" y="360" as="sourcePoint" />
            <mxPoint x="140" y="80" as="targetPoint" />
          </mxGeometry>
        </mxCell>
        <mxCell id="URppU9G0BXTxkSnTJ7dF-3" value="" style="endArrow=none;html=1;rounded=0;fillColor=#f8cecc;strokeColor=#B85450;" edge="1" parent="1">
          <mxGeometry width="50" height="50" relative="1" as="geometry">
            <mxPoint x="110" y="360" as="sourcePoint" />
            <mxPoint x="110" y="80" as="targetPoint" />
          </mxGeometry>
        </mxCell>
        <mxCell id="URppU9G0BXTxkSnTJ7dF-4" value="" style="endArrow=none;html=1;rounded=0;fillColor=#f8cecc;strokeColor=#B85450;" edge="1" parent="1">
          <mxGeometry width="50" height="50" relative="1" as="geometry">
            <mxPoint x="170" y="360" as="sourcePoint" />
            <mxPoint x="170" y="80" as="targetPoint" />
          </mxGeometry>
        </mxCell>
        <mxCell id="URppU9G0BXTxkSnTJ7dF-6" value="L1" style="text;html=1;align=center;verticalAlign=middle;resizable=0;points=[];autosize=1;strokeColor=none;fillColor=none;" vertex="1" parent="1">
          <mxGeometry x="90" y="50" width="40" height="30" as="geometry" />
        </mxCell>
        <mxCell id="URppU9G0BXTxkSnTJ7dF-7" value="L2" style="text;html=1;align=center;verticalAlign=middle;resizable=0;points=[];autosize=1;strokeColor=none;fillColor=none;" vertex="1" parent="1">
          <mxGeometry x="120" y="50" width="40" height="30" as="geometry" />
        </mxCell>
        <mxCell id="URppU9G0BXTxkSnTJ7dF-8" value="L3" style="text;html=1;align=center;verticalAlign=middle;resizable=0;points=[];autosize=1;strokeColor=none;fillColor=none;" vertex="1" parent="1">
          <mxGeometry x="150" y="50" width="40" height="30" as="geometry" />
        </mxCell>
        <mxCell id="URppU9G0BXTxkSnTJ7dF-9" value="N" style="text;html=1;align=center;verticalAlign=middle;resizable=0;points=[];autosize=1;strokeColor=none;fillColor=none;" vertex="1" parent="1">
          <mxGeometry x="65" y="50" width="30" height="30" as="geometry" />
        </mxCell>
        <mxCell id="URppU9G0BXTxkSnTJ7dF-37" style="edgeStyle=orthogonalEdgeStyle;rounded=0;orthogonalLoop=1;jettySize=auto;html=1;exitX=1;exitY=0.5;exitDx=0;exitDy=0;" edge="1" parent="1" source="URppU9G0BXTxkSnTJ7dF-11">
          <mxGeometry relative="1" as="geometry">
            <mxPoint x="370" y="200.0322580645161" as="targetPoint" />
          </mxGeometry>
        </mxCell>
        <mxCell id="URppU9G0BXTxkSnTJ7dF-11" value="Charge" style="swimlane;whiteSpace=wrap;html=1;fillColor=#f8cecc;strokeColor=#b85450;" vertex="1" parent="1">
          <mxGeometry x="200" y="150" width="120" height="100" as="geometry" />
        </mxCell>
        <mxCell id="URppU9G0BXTxkSnTJ7dF-31" value="" style="endArrow=none;html=1;rounded=0;" edge="1" parent="URppU9G0BXTxkSnTJ7dF-11">
          <mxGeometry width="50" height="50" relative="1" as="geometry">
            <mxPoint x="-90" y="25" as="sourcePoint" />
            <mxPoint y="25" as="targetPoint" />
          </mxGeometry>
        </mxCell>
        <mxCell id="URppU9G0BXTxkSnTJ7dF-34" value="" style="endArrow=none;html=1;rounded=0;" edge="1" parent="URppU9G0BXTxkSnTJ7dF-11">
          <mxGeometry width="50" height="50" relative="1" as="geometry">
            <mxPoint x="-30" y="49.52000000000001" as="sourcePoint" />
            <mxPoint y="50" as="targetPoint" />
          </mxGeometry>
        </mxCell>
        <mxCell id="URppU9G0BXTxkSnTJ7dF-22" style="edgeStyle=orthogonalEdgeStyle;rounded=0;orthogonalLoop=1;jettySize=auto;html=1;exitX=1;exitY=0.5;exitDx=0;exitDy=0;entryX=0;entryY=0.5;entryDx=0;entryDy=0;" edge="1" parent="1" source="URppU9G0BXTxkSnTJ7dF-12" target="URppU9G0BXTxkSnTJ7dF-13">
          <mxGeometry relative="1" as="geometry" />
        </mxCell>
        <mxCell id="URppU9G0BXTxkSnTJ7dF-12" value="Acquisition courant/tension" style="swimlane;whiteSpace=wrap;html=1;startSize=50;fillColor=#dae8fc;strokeColor=#6c8ebf;" vertex="1" parent="1">
          <mxGeometry x="370" y="150" width="120" height="90" as="geometry" />
        </mxCell>
        <mxCell id="URppU9G0BXTxkSnTJ7dF-23" style="edgeStyle=orthogonalEdgeStyle;rounded=0;orthogonalLoop=1;jettySize=auto;html=1;exitX=0.5;exitY=0;exitDx=0;exitDy=0;entryX=0.5;entryY=1;entryDx=0;entryDy=0;" edge="1" parent="1" source="URppU9G0BXTxkSnTJ7dF-13" target="URppU9G0BXTxkSnTJ7dF-16">
          <mxGeometry relative="1" as="geometry" />
        </mxCell>
        <mxCell id="URppU9G0BXTxkSnTJ7dF-24" style="edgeStyle=orthogonalEdgeStyle;rounded=0;orthogonalLoop=1;jettySize=auto;html=1;exitX=0.5;exitY=1;exitDx=0;exitDy=0;entryX=0.5;entryY=0;entryDx=0;entryDy=0;" edge="1" parent="1" source="URppU9G0BXTxkSnTJ7dF-13" target="URppU9G0BXTxkSnTJ7dF-15">
          <mxGeometry relative="1" as="geometry" />
        </mxCell>
        <mxCell id="URppU9G0BXTxkSnTJ7dF-25" style="edgeStyle=orthogonalEdgeStyle;rounded=0;orthogonalLoop=1;jettySize=auto;html=1;exitX=1;exitY=0.5;exitDx=0;exitDy=0;entryX=0;entryY=0.5;entryDx=0;entryDy=0;" edge="1" parent="1" source="URppU9G0BXTxkSnTJ7dF-13" target="URppU9G0BXTxkSnTJ7dF-14">
          <mxGeometry relative="1" as="geometry" />
        </mxCell>
        <mxCell id="URppU9G0BXTxkSnTJ7dF-27" style="rounded=0;orthogonalLoop=1;jettySize=auto;html=1;exitX=1;exitY=1;exitDx=0;exitDy=0;entryX=0;entryY=0;entryDx=0;entryDy=0;strokeColor=default;" edge="1" parent="1" source="URppU9G0BXTxkSnTJ7dF-13" target="URppU9G0BXTxkSnTJ7dF-17">
          <mxGeometry relative="1" as="geometry" />
        </mxCell>
        <mxCell id="URppU9G0BXTxkSnTJ7dF-13" value="Traitement numérique" style="swimlane;whiteSpace=wrap;html=1;startSize=50;fillColor=#fff2cc;strokeColor=#d6b656;" vertex="1" parent="1">
          <mxGeometry x="540" y="150" width="110" height="90" as="geometry" />
        </mxCell>
        <mxCell id="URppU9G0BXTxkSnTJ7dF-14" value="Affichage temps réel" style="swimlane;whiteSpace=wrap;html=1;startSize=50;fillColor=#e1d5e7;strokeColor=#9673a6;" vertex="1" parent="1">
          <mxGeometry x="700" y="150" width="120" height="90" as="geometry" />
        </mxCell>
        <mxCell id="URppU9G0BXTxkSnTJ7dF-30" style="edgeStyle=orthogonalEdgeStyle;rounded=0;orthogonalLoop=1;jettySize=auto;html=1;exitX=0.5;exitY=1;exitDx=0;exitDy=0;entryX=0.5;entryY=0;entryDx=0;entryDy=0;" edge="1" parent="1" source="URppU9G0BXTxkSnTJ7dF-15" target="URppU9G0BXTxkSnTJ7dF-18">
          <mxGeometry relative="1" as="geometry" />
        </mxCell>
        <mxCell id="URppU9G0BXTxkSnTJ7dF-15" value="Transmission RF" style="swimlane;whiteSpace=wrap;html=1;startSize=50;fillColor=#f5f5f5;fontColor=#333333;strokeColor=#666666;" vertex="1" parent="1">
          <mxGeometry x="540" y="270" width="120" height="90" as="geometry" />
        </mxCell>
        <mxCell id="URppU9G0BXTxkSnTJ7dF-16" value="Communication" style="swimlane;whiteSpace=wrap;html=1;startSize=50;fillColor=#ffe6cc;strokeColor=#d79b00;" vertex="1" parent="1">
          <mxGeometry x="540" y="30" width="120" height="90" as="geometry" />
        </mxCell>
        <mxCell id="URppU9G0BXTxkSnTJ7dF-17" value="Enregistrement des données" style="swimlane;whiteSpace=wrap;html=1;startSize=50;fillColor=#d5e8d4;strokeColor=#82b366;" vertex="1" parent="1">
          <mxGeometry x="710" y="270" width="120" height="90" as="geometry" />
        </mxCell>
        <mxCell id="URppU9G0BXTxkSnTJ7dF-18" value="Affichage à distance" style="swimlane;whiteSpace=wrap;html=1;startSize=50;fillColor=#b0e3e6;strokeColor=#0e8088;" vertex="1" parent="1">
          <mxGeometry x="540" y="380" width="120" height="90" as="geometry" />
        </mxCell>
        <mxCell id="URppU9G0BXTxkSnTJ7dF-32" value="" style="endArrow=none;html=1;rounded=0;" edge="1" parent="1">
          <mxGeometry width="50" height="50" relative="1" as="geometry">
            <mxPoint x="140" y="185" as="sourcePoint" />
            <mxPoint x="200" y="185" as="targetPoint" />
          </mxGeometry>
        </mxCell>
        <mxCell id="URppU9G0BXTxkSnTJ7dF-35" value="" style="endArrow=none;html=1;rounded=0;" edge="1" parent="1">
          <mxGeometry width="50" height="50" relative="1" as="geometry">
            <mxPoint x="80" y="220" as="sourcePoint" />
            <mxPoint x="200" y="220" as="targetPoint" />
          </mxGeometry>
        </mxCell>
      </root>
    </mxGraphModel>
  </diagram>
</mxfile>
